<?xml version="1.0" encoding="utf-8"?>
<!-- Generator: Adobe Illustrator 28.1.0, SVG Export Plug-In . SVG Version: 6.00 Build 0)  -->
<svg version="1.1" id="Layer_1" xmlns="http://www.w3.org/2000/svg" xmlns:xlink="http://www.w3.org/1999/xlink" x="0px" y="0px"
	 viewBox="0 0 302.29 118.5" style="enable-background:new 0 0 302.29 118.5;" xml:space="preserve">
<style type="text/css">
	.st0{fill:#3C1D40;}
	.st1{fill:#FFFFFF;}
</style>
<path class="st0" d="M12,0h278.29c6.63,0,12,5.37,12,12v94.5c0,6.63-5.37,12-12,12H12c-6.63,0-12-5.37-12-12V12C0,5.37,5.37,0,12,0z
	"/>
<g>
	<path class="st1" d="M36.97,32.53v43.98h-5.61V32.53C31.36,32.53,36.97,32.53,36.97,32.53z M45.09,76.51H34.46v-4.96h10.27
		c3.58,0,6.55-0.68,8.9-2.05s4.11-3.33,5.27-5.89s1.74-5.62,1.74-9.18s-0.58-6.55-1.73-9.08c-1.15-2.53-2.86-4.47-5.14-5.83
		s-5.11-2.04-8.52-2.04H34.21v-4.96h11.42c4.29,0,7.96,0.88,11,2.63s5.37,4.27,7,7.54c1.62,3.28,2.44,7.19,2.44,11.73
		s-0.82,8.53-2.45,11.82c-1.63,3.3-4.01,5.83-7.14,7.6s-6.93,2.66-11.39,2.66V76.51z"/>
	<path class="st1" d="M75,76.51V32.53h7.97L93.8,60.28c0.26,0.65,0.55,1.46,0.87,2.43s0.67,2.03,1.03,3.17s0.71,2.28,1.05,3.41
		c0.33,1.13,0.63,2.18,0.89,3.14H96.4c0.28-0.91,0.58-1.91,0.92-3.03c0.33-1.11,0.68-2.24,1.05-3.39s0.71-2.23,1.05-3.23
		c0.33-1,0.63-1.84,0.89-2.51L111,32.52h8V76.5h-5.52V51.38c0-0.91,0-1.94,0.01-3.1c0-1.16,0.03-2.38,0.06-3.66s0.06-2.58,0.09-3.9
		c0.03-1.32,0.05-2.6,0.07-3.84h0.47c-0.41,1.36-0.85,2.74-1.31,4.15s-0.92,2.76-1.36,4.07s-0.86,2.5-1.25,3.59
		c-0.39,1.08-0.73,1.98-1,2.69L99.43,76.5h-4.87l-9.98-25.12c-0.28-0.69-0.6-1.56-0.97-2.61s-0.78-2.22-1.23-3.51
		c-0.44-1.29-0.9-2.65-1.37-4.07c-0.47-1.43-0.96-2.86-1.45-4.29h0.53c0.04,1.1,0.07,2.29,0.1,3.57s0.05,2.57,0.07,3.88
		s0.04,2.57,0.06,3.78s0.03,2.3,0.03,3.26v25.12h-5.34L75,76.51z"/>
	<path class="st1" d="M140.3,77.22c-2.26,0-4.28-0.33-6.04-0.99s-3.21-1.64-4.35-2.94s-1.91-2.89-2.3-4.78l5.05-1.21
		c0.47,1.81,1.36,3.14,2.67,3.99s2.95,1.27,4.92,1.27c2.3,0,4.14-0.49,5.51-1.48c1.37-0.98,2.05-2.16,2.05-3.51
		c0-1.14-0.4-2.09-1.2-2.85c-0.8-0.76-2.01-1.32-3.65-1.7l-5.49-1.3c-2.99-0.71-5.22-1.81-6.67-3.29c-1.46-1.49-2.18-3.39-2.18-5.71
		c0-1.89,0.53-3.56,1.59-5c1.06-1.45,2.51-2.58,4.35-3.39c1.84-0.82,3.93-1.22,6.27-1.22s4.19,0.34,5.77,1.02s2.87,1.61,3.87,2.8
		c0.99,1.19,1.74,2.56,2.23,4.12l-4.81,1.24c-0.45-1.18-1.21-2.25-2.26-3.22s-2.64-1.45-4.77-1.45c-1.97,0-3.61,0.45-4.92,1.36
		s-1.96,2.05-1.96,3.42c0,1.22,0.44,2.2,1.33,2.94c0.89,0.74,2.29,1.33,4.22,1.79l4.99,1.18c2.99,0.71,5.21,1.81,6.64,3.29
		c1.44,1.49,2.16,3.36,2.16,5.62c0,1.93-0.55,3.65-1.64,5.15s-2.62,2.69-4.58,3.56C145.14,76.8,142.87,77.23,140.3,77.22
		L140.3,77.22z"/>
</g>
<path class="st1" d="M183.66,47.72c0-6.47,7.66-34.56,45.93-34.56s46.18,29.07,46.18,36.72s7.84,35.33-41.48,35.41
	c-15.79,0.03-29.32,20.04-29.32,20.04s-3.67-25.84-1.63-23.62c-17.79-7.91-19.69-27.52-19.69-33.99L183.66,47.72z"/>
</svg>
