<?xml version="1.0" encoding="UTF-8"?>
<svg id="Layer_1" xmlns="http://www.w3.org/2000/svg" version="1.1" viewBox="0 0 302.29 118.5">
  <!-- Generator: Adobe Illustrator 29.5.1, SVG Export Plug-In . SVG Version: 2.1.0 Build 141)  -->
  <defs>
    <style>
      .st0 {
        fill: #3c1d40;
      }

      .st1 {
        fill: #fff;
      }
    </style>
  </defs>
  <rect class="st0" width="302.29" height="118.5" rx="12" ry="12"/>
  <g>
    <path class="st1" d="M36.97,32.53v43.98h-5.61v-43.98h5.61ZM45.09,76.51h-10.63v-4.96h10.27c3.58,0,6.55-.68,8.9-2.05s4.11-3.33,5.27-5.89c1.16-2.56,1.74-5.62,1.74-9.18s-.58-6.55-1.73-9.08c-1.15-2.53-2.86-4.47-5.14-5.83s-5.11-2.04-8.52-2.04h-11.04v-4.96h11.42c4.29,0,7.96.88,11,2.63s5.37,4.27,7,7.54c1.62,3.28,2.44,7.19,2.44,11.73s-.82,8.53-2.45,11.82c-1.63,3.3-4.01,5.83-7.14,7.6-3.13,1.77-6.93,2.66-11.39,2.66Z"/>
    <path class="st1" d="M75,76.51v-43.98h7.97l10.83,27.75c.26.65.55,1.46.87,2.43.32.97.67,2.03,1.03,3.17s.71,2.28,1.05,3.41c.33,1.13.63,2.18.89,3.14h-1.24c.28-.91.58-1.91.92-3.03.33-1.11.68-2.24,1.05-3.39s.71-2.23,1.05-3.23c.33-1,.63-1.84.89-2.51l10.69-27.75h8v43.98h-5.52v-25.12c0-.91,0-1.94.01-3.1,0-1.16.03-2.38.06-3.66.03-1.28.06-2.58.09-3.9.03-1.32.05-2.6.07-3.84h.47c-.41,1.36-.85,2.74-1.31,4.15-.46,1.41-.92,2.76-1.36,4.07-.44,1.31-.86,2.5-1.25,3.59-.39,1.08-.73,1.98-1,2.69l-9.83,25.12h-4.87l-9.98-25.12c-.28-.69-.6-1.56-.97-2.61-.37-1.05-.78-2.22-1.23-3.51-.44-1.29-.9-2.65-1.37-4.07-.47-1.43-.96-2.86-1.45-4.29h.53c.04,1.1.07,2.29.1,3.57.03,1.28.05,2.57.07,3.88.02,1.31.04,2.57.06,3.78.02,1.21.03,2.3.03,3.26v25.12h-5.34Z"/>
    <path class="st1" d="M129.02,49.26l2.6-16.74h6.08l-4.6,16.74h-4.07Z"/>
    <path class="st1" d="M151.3,77.22c-2.26,0-4.28-.33-6.04-.99s-3.21-1.64-4.35-2.94c-1.14-1.3-1.91-2.89-2.3-4.78l5.05-1.21c.47,1.81,1.36,3.14,2.67,3.99,1.31.85,2.95,1.27,4.92,1.27,2.3,0,4.14-.49,5.51-1.48,1.37-.98,2.05-2.16,2.05-3.51,0-1.14-.4-2.09-1.2-2.85s-2.01-1.32-3.65-1.7l-5.49-1.3c-2.99-.71-5.22-1.81-6.67-3.29-1.46-1.49-2.18-3.39-2.18-5.71,0-1.89.53-3.56,1.59-5,1.06-1.45,2.51-2.58,4.35-3.39,1.84-.82,3.93-1.22,6.27-1.22s4.19.34,5.77,1.02c1.58.68,2.87,1.61,3.87,2.8.99,1.19,1.74,2.56,2.23,4.12l-4.81,1.24c-.45-1.18-1.21-2.25-2.26-3.22s-2.64-1.45-4.77-1.45c-1.97,0-3.61.45-4.92,1.36-1.31.91-1.96,2.05-1.96,3.42,0,1.22.44,2.2,1.33,2.94.89.74,2.29,1.33,4.22,1.79l4.99,1.18c2.99.71,5.21,1.81,6.64,3.29,1.44,1.49,2.16,3.36,2.16,5.62,0,1.93-.55,3.65-1.64,5.15s-2.62,2.69-4.58,3.56c-1.96.87-4.23,1.3-6.8,1.3Z"/>
  </g>
  <path class="st1" d="M183.66,47.72c0-6.47,7.66-34.56,45.93-34.56s46.18,29.07,46.18,36.72,7.84,35.33-41.48,35.41c-15.79.03-29.32,20.04-29.32,20.04,0,0-3.67-25.84-1.63-23.62-17.79-7.91-19.69-27.52-19.69-33.99Z"/>
</svg>