<?xml version="1.0" encoding="UTF-8"?>
<svg id="Layer_1" xmlns="http://www.w3.org/2000/svg" version="1.1" viewBox="0 0 500 200">
  <!-- Generator: Adobe Illustrator 29.5.1, SVG Export Plug-In . SVG Version: 2.1.0 Build 141)  -->
  <defs>
    <style>
      .st0 {
        fill: #3c1d40;
      }

      .st1 {
        fill: #fff;
      }

      .st2 {
        fill: none;
        stroke: #fff;
        stroke-miterlimit: 10;
        stroke-width: 3px;
      }
    </style>
  </defs>
  <g>
    <rect class="st0" x=".5" y=".5" width="499" height="199" rx="11.5" ry="11.5"/>
    <path d="M488,1c6.07,0,11,4.93,11,11v176c0,6.07-4.93,11-11,11H12c-6.07,0-11-4.93-11-11V12C1,5.93,5.93,1,12,1h476M488,0H12C5.4,0,0,5.4,0,12v176c0,6.6,5.4,12,12,12h476c6.6,0,12-5.4,12-12V12c0-6.6-5.4-12-12-12h0Z"/>
  </g>
  <g>
    <path class="st2" d="M113.22,90.03v-25.16s3.57-24.49-32.49-24.49-31.42,23.69-31.42,23.69v95.56h64.01l.37-40.55"/>
    <polygon class="st2" points="150.89 98.69 150.89 110.92 97.82 110.92 97.82 123.15 77.51 104.81 97.82 86.46 97.82 98.69 150.89 98.69"/>
  </g>
  <g>
    <path class="st1" d="M232.69,117.81v-47.85h6.1v42.46h22.16v5.4h-28.26Z"/>
    <path class="st1" d="M283.79,118.58c-3.25,0-6.11-.77-8.56-2.31-2.45-1.54-4.36-3.7-5.73-6.49-1.37-2.78-2.06-6.02-2.06-9.7s.68-7.02,2.06-9.81c1.37-2.79,3.28-4.96,5.73-6.5,2.45-1.54,5.3-2.31,8.56-2.31s6.14.77,8.61,2.31c2.46,1.54,4.38,3.71,5.75,6.5,1.37,2.79,2.05,6.07,2.05,9.81s-.68,6.92-2.05,9.7c-1.37,2.78-3.29,4.95-5.75,6.49-2.46,1.54-5.33,2.31-8.61,2.31ZM283.79,113.41c2.42,0,4.41-.62,5.97-1.86,1.56-1.24,2.72-2.87,3.47-4.9.75-2.02,1.12-4.21,1.12-6.57s-.38-4.59-1.12-6.63c-.75-2.04-1.91-3.69-3.47-4.95-1.56-1.25-3.55-1.88-5.97-1.88s-4.37.63-5.91,1.88c-1.54,1.25-2.69,2.9-3.44,4.93-.75,2.03-1.12,4.25-1.12,6.65s.38,4.54,1.12,6.57c.75,2.02,1.9,3.66,3.44,4.9,1.54,1.24,3.51,1.86,5.91,1.86Z"/>
    <path class="st1" d="M323.17,132c-2.66,0-4.95-.34-6.89-1.01-1.94-.67-3.55-1.57-4.83-2.68-1.28-1.11-2.3-2.32-3.05-3.63l4.69-3.02c.51.69,1.15,1.45,1.91,2.28.76.84,1.79,1.55,3.08,2.14,1.29.59,2.99.88,5.09.88,2.87,0,5.23-.69,7.08-2.06,1.85-1.37,2.78-3.53,2.78-6.49v-7.19h-.55c-.41.69-.98,1.5-1.72,2.44s-1.8,1.77-3.18,2.49c-1.38.72-3.23,1.08-5.54,1.08-2.87,0-5.45-.68-7.74-2.04s-4.1-3.35-5.43-5.96-1.99-5.79-1.99-9.54.65-6.92,1.96-9.65c1.31-2.73,3.11-4.84,5.41-6.34,2.3-1.5,4.94-2.25,7.92-2.25,2.31,0,4.16.38,5.54,1.14,1.38.76,2.45,1.63,3.2,2.62.75.98,1.33,1.8,1.73,2.44h.55v-5.75h5.62v36.84c0,3.08-.7,5.6-2.09,7.56-1.39,1.96-3.27,3.4-5.64,4.32-2.37.92-5,1.38-7.92,1.38ZM323.01,112.09c2.18,0,4.02-.5,5.52-1.49,1.5-1,2.63-2.43,3.4-4.3.77-1.87,1.16-4.12,1.16-6.73s-.38-4.79-1.14-6.73c-.76-1.94-1.89-3.46-3.39-4.56-1.5-1.1-3.35-1.65-5.56-1.65s-4.17.58-5.68,1.75c-1.52,1.17-2.66,2.73-3.42,4.67s-1.14,4.12-1.14,6.52.38,4.64,1.16,6.52c.77,1.88,1.92,3.36,3.44,4.42,1.52,1.06,3.4,1.59,5.65,1.59Z"/>
    <path class="st1" d="M387.56,118.45c-4.09,0-7.74-.99-10.94-2.97-3.2-1.98-5.72-4.81-7.56-8.48-1.84-3.67-2.76-8.03-2.76-13.09s.92-9.45,2.76-13.12c1.84-3.67,4.36-6.5,7.56-8.5,3.2-1.99,6.85-2.99,10.94-2.99s7.73,1,10.92,2.99,5.7,4.82,7.53,8.5c1.83,3.67,2.75,8.04,2.75,13.12s-.92,9.42-2.75,13.09c-1.83,3.67-4.34,6.5-7.53,8.48s-6.83,2.97-10.92,2.97ZM387.56,112.8c2.85,0,5.42-.72,7.72-2.17s4.13-3.58,5.49-6.39c1.36-2.82,2.04-6.26,2.04-10.33s-.68-7.57-2.04-10.39c-1.36-2.81-3.19-4.95-5.49-6.39s-4.88-2.17-7.72-2.17-5.46.73-7.77,2.18c-2.31,1.46-4.15,3.59-5.51,6.41-1.36,2.82-2.04,6.27-2.04,10.36s.68,7.5,2.04,10.31c1.36,2.8,3.2,4.93,5.51,6.39s4.9,2.18,7.77,2.18Z"/>
    <path class="st1" d="M429.92,118.26c-2.42,0-4.54-.5-6.38-1.49-1.83-1-3.25-2.5-4.27-4.51-1.02-2.01-1.53-4.53-1.53-7.55v-22.8h5.78v22.32c0,2.76.73,4.92,2.18,6.49,1.46,1.56,3.44,2.34,5.94,2.34,1.71,0,3.25-.38,4.61-1.12,1.36-.75,2.44-1.85,3.23-3.29s1.19-3.18,1.19-5.22v-21.52h5.81v35.91h-5.59v-8.7h.77c-1.11,3.36-2.69,5.73-4.74,7.1s-4.38,2.05-7.02,2.05Z"/>
    <path class="st1" d="M470.78,81.9v4.95h-18.56v-4.95h18.56ZM457.61,73.36h5.78v35.14c0,1.61.33,2.78.98,3.52.65.74,1.74,1.11,3.26,1.11.36,0,.83-.04,1.4-.13.57-.08,1.09-.17,1.56-.26l1.19,4.88c-.6.21-1.28.37-2.04.48-.76.11-1.52.16-2.26.16-3.1,0-5.52-.82-7.26-2.46-1.73-1.64-2.6-3.92-2.6-6.86v-35.58Z"/>
  </g>
</svg>